<svg width="20" height="21" viewBox="0 0 20 21" fill="none" xmlns="http://www.w3.org/2000/svg">
<path d="M3.33331 12.9042H2.70831H3.33331ZM5.61074 15.5695L5.5249 16.1886L5.61074 15.5695ZM14.0994 15.5695L14.1852 16.1886L14.0994 15.5695ZM15.9881 11.4893L15.4513 11.8095L15.9881 11.4893ZM5.40766 7.23909C5.40766 4.78282 7.39885 2.79163 9.85512 2.79163V1.54163C6.7085 1.54163 4.15766 4.09247 4.15766 7.23909H5.40766ZM5.40766 8.98279V7.23909H4.15766V8.98279H5.40766ZM3.95831 12.9042C3.95831 12.503 4.06807 12.1293 4.25884 11.8094L3.18526 11.1692C2.88224 11.6773 2.70831 12.2714 2.70831 12.9042H3.95831ZM5.69658 14.9504C4.69689 14.8118 3.95831 13.9427 3.95831 12.9042H2.70831C2.70831 14.5373 3.87841 15.9603 5.5249 16.1886L5.69658 14.9504ZM9.85505 15.3099C8.61173 15.3099 7.00541 15.1319 5.69658 14.9504L5.5249 16.1886C6.84388 16.3715 8.52112 16.5599 9.85505 16.5599V15.3099ZM14.0135 14.9504C12.7047 15.1319 11.0984 15.3099 9.85505 15.3099V16.5599C11.189 16.5599 12.8662 16.3715 14.1852 16.1886L14.0135 14.9504ZM15.7518 12.9042C15.7518 13.9427 15.0132 14.8118 14.0135 14.9504L14.1852 16.1886C15.8317 15.9603 17.0018 14.5373 17.0018 12.9042H15.7518ZM15.4513 11.8095C15.642 12.1293 15.7518 12.503 15.7518 12.9042H17.0018C17.0018 12.2714 16.8279 11.6773 16.5249 11.1692L15.4513 11.8095ZM14.3026 7.23909V8.98295H15.5526V7.23909H14.3026ZM9.85512 2.79163C12.3114 2.79163 14.3026 4.78282 14.3026 7.23909H15.5526C15.5526 4.09247 13.0017 1.54163 9.85512 1.54163V2.79163ZM16.5249 11.1692C16.2675 10.7376 16.0337 10.3918 15.8409 10.0055C15.6563 9.63576 15.5526 9.30585 15.5526 8.98295H14.3026C14.3026 9.57698 14.4943 10.1065 14.7225 10.5638C14.9426 11.0047 15.2391 11.4536 15.4513 11.8095L16.5249 11.1692ZM4.15766 8.98279C4.15766 9.30571 4.05388 9.63562 3.86928 10.0054C3.67649 10.3917 3.44268 10.7375 3.18526 11.1692L4.25884 11.8094C4.47109 11.4535 4.76759 11.0046 4.98768 10.5637C5.21596 10.1064 5.40766 9.57684 5.40766 8.98279H4.15766Z" fill="white"/>
<path d="M11.6666 17.8616C11.2772 18.4473 10.6112 18.8334 9.85503 18.8334C9.09889 18.8334 8.43291 18.4473 8.04344 17.8616" stroke="white" strokeWidth="1.25" stroke-linecap="round"/>
</svg>
