<svg width="20" height="20" viewBox="0 0 20 20" fill="none" xmlns="http://www.w3.org/2000/svg">
  <path d="M12.839 6.84787C12.9562 6.96508 13.1155 7.03125 13.2812 7.03125C13.447 7.03125 13.606 6.9654 13.7232 6.84819C13.8404 6.73098 13.9062 6.57201 13.9062 6.40625C13.9062 6.24049 13.8404 6.08152 13.7232 5.96431L10.4419 2.68306C10.3247 2.56585 10.1658 2.5 10 2.5C9.83424 2.5 9.67527 2.56585 9.55806 2.68306L6.27704 5.96407C6.15983 6.08128 6.09375 6.24049 6.09375 6.40625C6.09375 6.41626 6.09399 6.42627 6.09447 6.43627C6.10194 6.59147 6.16694 6.73832 6.27681 6.84819C6.39402 6.9654 6.55299 7.03125 6.71875 7.03125C6.88451 7.03125 7.04348 6.9654 7.16069 6.84819L10 4.00888L12.839 6.84787Z" fill="white" />
  <path d="M10.625 11.875V3.125C10.625 2.77982 10.3452 2.5 10 2.5C9.65482 2.5 9.375 2.77982 9.375 3.125V11.875C9.375 12.2202 9.65482 12.5 10 12.5C10.3452 12.5 10.625 12.2202 10.625 11.875Z" fill="white" />
  <path d="M3.75 16.25V11.875C3.75 11.5298 3.47018 11.25 3.125 11.25C2.77982 11.25 2.5 11.5298 2.5 11.875V16.25C2.5 16.7678 2.86612 17.1339 2.86612 17.1339C3.23223 17.5 3.75 17.5 3.75 17.5H16.25C16.7678 17.5 17.1339 17.1339 17.1339 17.1339C17.5 16.7678 17.5 16.25 17.5 16.25V11.875C17.5 11.5298 17.2202 11.25 16.875 11.25C16.5298 11.25 16.25 11.5298 16.25 11.875V16.25H3.75Z" fill="white" />
</svg>