<svg width="20" height="20" viewBox="0 0 20 20" fill="none" xmlns="http://www.w3.org/2000/svg">
  <path fill-rule="evenodd" clip-rule="evenodd" d="M3.28897 3.125C2.91741 3.12512 2.60625 3.32818 2.60625 3.32818C2.29508 3.53123 2.14535 3.87129 2.14535 3.87129C1.99563 4.21135 2.05596 4.57798 2.05596 4.57798C2.1163 4.94461 2.3671 5.21875 2.3671 5.21875L7.4985 10.8656L7.49919 10.866C7.50009 10.8659 7.50014 10.8612 7.50014 10.8612L7.50011 16.9609C7.50362 17.3104 7.68175 17.6036 7.68175 17.6036C7.85989 17.8968 8.16277 18.058 8.16277 18.058C8.46564 18.2192 8.80837 18.2032 8.80837 18.2032C9.1511 18.1872 9.43764 17.9985 9.43764 17.9985L11.9402 16.3328C12.2014 16.1634 12.3522 15.8827 12.3522 15.8827C12.503 15.602 12.5001 15.2833 12.5001 15.2833L12.5001 10.8673L17.6345 5.2172C17.8839 4.94461 17.9443 4.57798 17.9443 4.57798C18.0046 4.21135 17.8549 3.87129 17.8549 3.87129C17.7051 3.53123 17.394 3.32818 17.394 3.32818C17.0828 3.12512 16.7112 3.125 16.7112 3.125H3.28897ZM8.4236 10.025L3.28937 4.375L16.7109 4.375L16.7094 4.37655L11.5825 10.0186C11.2454 10.3795 11.2501 10.8672 11.2501 10.8672L11.2501 15.2907L11.2489 15.2914L11.2475 15.2922L8.75011 16.9546L8.75008 10.8732C8.75484 10.3795 8.4236 10.025 8.4236 10.025Z" fill="white" />
</svg>