<svg width="33" height="32" viewBox="0 0 33 32" fill="none" xmlns="http://www.w3.org/2000/svg">
  <path d="M18.25 16C18.25 16.2967 18.162 16.5867 17.9972 16.8334C17.8324 17.08 17.5981 17.2723 17.324 17.3858C17.0499 17.4994 16.7483 17.5291 16.4574 17.4712C16.1664 17.4133 15.8991 17.2704 15.6893 17.0607C15.4796 16.8509 15.3367 16.5836 15.2788 16.2926C15.2209 16.0017 15.2506 15.7001 15.3642 15.426C15.4777 15.1519 15.67 14.9176 15.9166 14.7528C16.1633 14.588 16.4533 14.5 16.75 14.5C17.1478 14.5 17.5294 14.658 17.8107 14.9393C18.092 15.2206 18.25 15.6022 18.25 16ZM16.75 9.5C17.0467 9.5 17.3367 9.41203 17.5834 9.24721C17.83 9.08238 18.0223 8.84811 18.1358 8.57403C18.2494 8.29994 18.2791 7.99834 18.2212 7.70737C18.1633 7.41639 18.0204 7.14912 17.8107 6.93934C17.6009 6.72956 17.3336 6.5867 17.0426 6.52882C16.7517 6.47094 16.4501 6.50065 16.176 6.61418C15.9019 6.72771 15.6676 6.91997 15.5028 7.16665C15.338 7.41332 15.25 7.70333 15.25 8C15.25 8.39783 15.408 8.77936 15.6893 9.06066C15.9706 9.34197 16.3522 9.5 16.75 9.5ZM16.75 22.5C16.4533 22.5 16.1633 22.588 15.9166 22.7528C15.67 22.9176 15.4777 23.1519 15.3642 23.426C15.2506 23.7001 15.2209 24.0017 15.2788 24.2926C15.3367 24.5836 15.4796 24.8509 15.6893 25.0607C15.8991 25.2704 16.1664 25.4133 16.4574 25.4712C16.7483 25.5291 17.0499 25.4993 17.324 25.3858C17.5981 25.2723 17.8324 25.08 17.9972 24.8334C18.162 24.5867 18.25 24.2967 18.25 24C18.25 23.6022 18.092 23.2206 17.8107 22.9393C17.5294 22.658 17.1478 22.5 16.75 22.5Z" fill="white" />
</svg>