<svg width="20" height="20" viewBox="0 0 20 20" fill="none" xmlns="http://www.w3.org/2000/svg">
<path d="M18.75 10.625V15.625C18.75 15.7907 18.6842 15.9497 18.567 16.0669C18.4498 16.1841 18.2908 16.25 18.125 16.25H13.125C13.0019 16.2494 12.8816 16.2128 12.7789 16.1448C12.6762 16.0768 12.5956 15.9803 12.5469 15.8672C12.5019 15.7517 12.4905 15.6259 12.514 15.5042C12.5375 15.3826 12.5949 15.27 12.6797 15.1797L14.7422 13.125L10.625 9.00779L7.94535 11.6953C7.82685 11.8127 7.66682 11.8785 7.50004 11.8785C7.33326 11.8785 7.17322 11.8127 7.05472 11.6953L1.42972 6.07029C1.33006 5.94885 1.27913 5.79469 1.28683 5.63778C1.29454 5.48087 1.36033 5.33244 1.47142 5.22136C1.5825 5.11027 1.73093 5.04448 1.88784 5.03677C2.04475 5.02907 2.19892 5.08 2.32035 5.17966L7.50004 10.3672L10.1797 7.67966C10.2982 7.5623 10.4583 7.49646 10.625 7.49646C10.7918 7.49646 10.9519 7.5623 11.0703 7.67966L15.625 12.2422L17.6797 10.1797C17.7701 10.0949 17.8826 10.0374 18.0043 10.0139C18.1259 9.9904 18.2518 10.0018 18.3672 10.0469C18.481 10.0947 18.578 10.1751 18.6462 10.278C18.7143 10.3808 18.7504 10.5016 18.75 10.625Z" fill="#EA1831"/>
</svg>
