<svg width="20" height="20" viewBox="0 0 20 20" fill="none" xmlns="http://www.w3.org/2000/svg">
<path d="M18.75 4.375V9.375C18.7504 9.49839 18.7142 9.61913 18.6461 9.72202C18.578 9.8249 18.4809 9.90531 18.3672 9.95312C18.2901 9.98374 18.208 9.99964 18.125 10C17.959 9.9993 17.7997 9.93499 17.6797 9.82031L15.625 7.75781L11.0703 12.3203C10.9518 12.4377 10.7918 12.5035 10.625 12.5035C10.4582 12.5035 10.2982 12.4377 10.1797 12.3203L7.50001 9.63281L2.32032 14.8203C2.20035 14.935 2.04097 14.9993 1.87501 15C1.70935 14.9977 1.55052 14.9337 1.42969 14.8203C1.31233 14.7018 1.24649 14.5418 1.24649 14.375C1.24649 14.2082 1.31233 14.0482 1.42969 13.9297L7.05469 8.30469C7.17319 8.18732 7.33323 8.12148 7.50001 8.12148C7.66679 8.12148 7.82682 8.18732 7.94532 8.30469L10.625 10.9922L14.7422 6.875L12.6797 4.82031C12.5949 4.72995 12.5374 4.61742 12.5139 4.49576C12.4904 4.37409 12.5019 4.24826 12.5469 4.13281C12.5955 4.01967 12.6762 3.92318 12.7788 3.85518C12.8815 3.78718 13.0018 3.75063 13.125 3.75H18.125C18.2908 3.75 18.4497 3.81585 18.5669 3.93306C18.6842 4.05027 18.75 4.20924 18.75 4.375Z" fill="#19B26B"/>
</svg>
