<svg width="20" height="20" viewBox="0 0 20 20" fill="none" xmlns="http://www.w3.org/2000/svg">
  <path d="M15.1831 3.93306L3.93306 15.1831C3.81585 15.3003 3.75 15.4592 3.75 15.625C3.75 15.7908 3.81585 15.9497 3.93306 16.0669C4.05027 16.1842 4.20924 16.25 4.375 16.25C4.54076 16.25 4.69973 16.1842 4.81694 16.0669L16.0669 4.81694C16.1842 4.69973 16.25 4.54076 16.25 4.375C16.25 4.20924 16.1842 4.05027 16.0669 3.93306C15.9497 3.81585 15.7908 3.75 15.625 3.75C15.4592 3.75 15.3003 3.81585 15.1831 3.93306Z" fill="white" />
  <path fillRule="evenodd" clipRule="evenodd" d="M5.9375 3.125C5.9375 3.125 7.10248 3.125 7.92624 3.94876C7.92624 3.94876 8.75 4.77252 8.75 5.9375C8.75 5.9375 8.75 7.10248 7.92624 7.92624C7.92624 7.92624 7.10247 8.75 5.9375 8.75C5.9375 8.75 4.77252 8.75 3.94876 7.92624C3.94876 7.92624 3.125 7.10248 3.125 5.9375C3.125 5.9375 3.125 4.77252 3.94876 3.94876C3.94876 3.94876 4.77252 3.125 5.9375 3.125ZM5.9375 4.375C5.9375 4.375 5.29029 4.375 4.83265 4.83265C4.83265 4.83265 4.375 5.29029 4.375 5.9375C4.375 5.9375 4.375 6.58471 4.83265 7.04235C4.83265 7.04235 5.29029 7.5 5.9375 7.5C5.9375 7.5 6.58471 7.5 7.04235 7.04235C7.04235 7.04235 7.5 6.58471 7.5 5.9375C7.5 5.9375 7.5 5.29029 7.04235 4.83265C7.04235 4.83265 6.58471 4.375 5.9375 4.375Z" fill="white" />
  <path fillRule="evenodd" clipRule="evenodd" d="M14.0625 11.25C14.0625 11.25 15.2275 11.25 16.0512 12.0738C16.0512 12.0738 16.875 12.8975 16.875 14.0625C16.875 14.0625 16.875 15.2275 16.0512 16.0512C16.0512 16.0512 15.2275 16.875 14.0625 16.875C14.0625 16.875 12.8975 16.875 12.0738 16.0512C12.0738 16.0512 11.25 15.2275 11.25 14.0625C11.25 14.0625 11.25 12.8975 12.0738 12.0738C12.0738 12.0738 12.8975 11.25 14.0625 11.25ZM14.0625 12.5C14.0625 12.5 13.4153 12.5 12.9576 12.9576C12.9576 12.9576 12.5 13.4153 12.5 14.0625C12.5 14.0625 12.5 14.7097 12.9576 15.1674C12.9576 15.1674 13.4153 15.625 14.0625 15.625C14.0625 15.625 14.7097 15.625 15.1674 15.1674C15.1674 15.1674 15.625 14.7097 15.625 14.0625C15.625 14.0625 15.625 13.4153 15.1674 12.9576C15.1674 12.9576 14.7097 12.5 14.0625 12.5Z" fill="white" />
</svg>