<svg width="17" height="16" viewBox="0 0 17 16" fill="none" xmlns="http://www.w3.org/2000/svg">
  <path d="M13.208 13.9793C11.9052 15.2822 8.56855 14.058 5.75551 11.245C2.94248 8.43194 1.71826 5.09534 3.02114 3.79245L3.87898 2.93461C4.4712 2.34239 5.44703 2.35805 6.05856 2.96958L7.38728 4.2983C7.99881 4.90983 8.01447 5.88566 7.42225 6.47788L7.23799 6.66213C6.91825 6.98188 6.88696 7.4977 7.18407 7.85773C7.47064 8.20501 7.7796 8.55092 8.11458 8.8859C8.44957 9.22089 8.79548 9.52984 9.14275 9.81642C9.50279 10.1135 10.0186 10.0822 10.3384 9.7625L10.5226 9.57824C11.1148 8.98602 12.0907 9.00168 12.7022 9.6132L14.0309 10.9419C14.6424 11.5535 14.6581 12.5293 14.0659 13.1215L13.208 13.9793Z" stroke="white" />
  <path d="M12.2508 6.50043C12.0881 6.10364 11.8457 5.73189 11.5235 5.40971C11.2196 5.10572 10.8714 4.87275 10.4998 4.71077" stroke="white" stroke-linecap="round" />
  <path d="M10.5001 2.44215C11.3899 2.76449 12.2247 3.28231 12.938 3.99564C13.6692 4.72687 14.195 5.58576 14.5154 6.50063" stroke="white" stroke-linecap="round" />
</svg>