<svg width="15" height="24" viewBox="0 0 15 24" fill="none" xmlns="http://www.w3.org/2000/svg">
<path d="M12.1863 15.5617L7.81129 19.9367C7.72834 20.0189 7.61631 20.0649 7.49957 20.0649C7.38282 20.0649 7.2708 20.0189 7.18785 19.9367L2.81285 15.5617C2.7535 15.4984 2.71327 15.4197 2.69682 15.3345C2.68036 15.2493 2.68836 15.1613 2.71988 15.0804C2.75335 15.0008 2.80964 14.9329 2.88166 14.8852C2.95367 14.8375 3.03819 14.8122 3.12457 14.8125H11.8746C11.9609 14.8122 12.0455 14.8375 12.1175 14.8852C12.1895 14.9329 12.2458 15.0008 12.2793 15.0804C12.3108 15.1613 12.3188 15.2493 12.3023 15.3345C12.2859 15.4197 12.2456 15.4984 12.1863 15.5617Z" fill="#666666"/>
<path d="M12.1863 8.4383L7.81129 4.0633C7.72834 3.98115 7.61631 3.93506 7.49957 3.93506C7.38282 3.93506 7.2708 3.98115 7.18785 4.0633L2.81285 8.4383C2.7535 8.50156 2.71327 8.58033 2.69682 8.66549C2.68036 8.75066 2.68836 8.83874 2.71988 8.91955C2.75335 8.99918 2.80964 9.06711 2.88166 9.1148C2.95367 9.16249 3.03819 9.18779 3.12457 9.18752H11.8746C11.9609 9.18779 12.0455 9.16249 12.1175 9.1148C12.1895 9.06711 12.2458 8.99918 12.2793 8.91955C12.3108 8.83874 12.3188 8.75066 12.3023 8.66549C12.2859 8.58033 12.2456 8.50156 12.1863 8.4383Z" fill="#666666"/>
</svg>
